<svg width="49" height="49" viewBox="0 0 49 49" fill="none" xmlns="http://www.w3.org/2000/svg">
    <path d="M19.6669 4.26836C18.7385 4.59375 18.1452 5.39766 17.9346 6.60352C17.7911 7.4457 17.6667 7.68496 17.2551 7.95293C17.0063 8.11562 16.7288 8.13477 13.561 8.13477C11.3598 8.13477 9.9817 8.17305 9.71373 8.24004C9.45533 8.30703 9.1108 8.50801 8.8524 8.72812C7.78053 9.66602 8.01021 11.36 9.29264 12.0012L9.79986 12.25H24.4999H39.1999L39.7071 12.0012C40.9225 11.3887 41.1905 9.90527 40.2717 8.86211C39.6592 8.16348 39.4965 8.13477 35.4674 8.13477C32.271 8.13477 31.9934 8.1252 31.7446 7.95293C31.3331 7.68496 31.2087 7.4457 31.0651 6.60352C30.845 5.36895 30.2612 4.58418 29.2946 4.25879C28.6821 4.04824 20.2506 4.05781 19.6669 4.26836Z" fill="white"/>
    <path d="M11.4365 16.499C11.0537 16.6617 10.5273 17.1881 10.3742 17.5805C10.2977 17.7527 10.2402 18.1164 10.2402 18.3939C10.2402 19.4562 11.8672 38.1662 12.0107 38.7596C12.2213 39.64 13.0061 41.1904 13.609 41.9178C14.8053 43.3533 16.4705 44.3582 18.2793 44.741C19.2842 44.9516 29.7158 44.9516 30.7207 44.741C32.6252 44.3391 34.4148 43.2098 35.5633 41.6977C36.1088 40.9895 36.7691 39.6113 36.9797 38.7596C37.1711 38.0035 38.7789 19.2074 38.7406 18.26C38.7119 17.724 38.6545 17.5518 38.4057 17.2072C38.243 16.9775 37.9271 16.7 37.6975 16.5852L37.2955 16.365H24.5096C14.1258 16.3746 11.6662 16.3937 11.4365 16.499Z" fill="white"/>
</svg>
