<svg width="20" height="20" viewBox="0 0 20 20" fill="none" xmlns="http://www.w3.org/2000/svg">
    <path fill-rule="evenodd" clip-rule="evenodd" d="M11.5927 11.4138C10.1608 12.8457 7.8392 12.8457 6.40728 11.4138C4.97535 9.98187 4.97535 7.66027 6.40728 6.22834C7.8392 4.79642 10.1608 4.79642 11.5927 6.22834C13.0246 7.66027 13.0246 9.98187 11.5927 11.4138ZM12.0331 12.7968C10.0729 14.2961 7.25729 14.1494 5.46447 12.3566C3.51184 10.404 3.51184 7.23816 5.46447 5.28553C7.41709 3.33291 10.5829 3.33291 12.5355 5.28553C14.3283 7.07828 14.4751 9.8937 12.9759 11.8539L16.5426 15.4206L15.5998 16.3634L12.0331 12.7968Z" fill="#FFFDFD"/>
</svg>
